<svg xmlns="http://www.w3.org/2000/svg" width="273.914" height="52.029" viewBox="0 0 273.914 52.029">
  <g id="Group_405" data-name="Group 405" transform="translate(-12899.5 -2684.712)">
    <text id="Brighstar_PLC" data-name="Brighstar PLC" transform="translate(12973.414 2719.727)" fill="#fff" font-size="29" font-family="Poppins-Bold, Poppins" font-weight="700"><tspan x="0" y="0">Brighstar PLC</tspan></text>
    <g id="Layer_2" data-name="Layer 2" transform="translate(12899.5 2684.712)">
      <g id="Group_341" data-name="Group 341" transform="translate(0)">
        <path id="Path_42" data-name="Path 42" d="M102.058,99.6c-.052.035-.1.071-.158.106.1-.068.207-.133.308-.2C102.159,99.534,102.11,99.567,102.058,99.6Zm14.667-11.581.046-.041.2-.193Zm4.671-4.859c.033-.038.057-.065.074-.087A1.071,1.071,0,0,0,121.4,83.157Z" transform="translate(-74.146 -60.445)" fill="#fff"/>
        <path id="Path_46" data-name="Path 46" d="M102.48,143.357c.076-.049.153-.1.226-.147-.025.016-.052.033-.076.052C102.581,143.294,102.532,143.327,102.48,143.357Z" transform="translate(-74.568 -104.205)" fill="#fff"/>
        <path id="Path_47" data-name="Path 47" d="M145.54,110.715c-.041.033-.079.065-.12.1.054-.046.106-.09.158-.136A.451.451,0,0,0,145.54,110.715Z" transform="translate(-105.813 -80.535)" fill="#fff"/>
        <path id="Path_48" data-name="Path 48" d="M173.554,83.07c-.016.022-.041.049-.074.087A1.071,1.071,0,0,1,173.554,83.07Z" transform="translate(-126.23 -60.445)" fill="#fff"/>
        <g id="Group_404" data-name="Group 404">
          <path id="Path_40" data-name="Path 40" d="M49.205,55.73A138.937,138.937,0,0,1,21.2,78.8c-1.732,1.062-3.522,2.1-5.357,3.083A81.6,81.6,0,0,1,0,88.465l4.682-14.31s2.612-.7,6.616-1.912c1.765-.534,3.8-1.168,6-1.887,10.565-3.464,24.954-8.9,31.6-14.626h.31Z" transform="translate(0 -40.551)" fill="#fff"/>
          <path id="Path_41" data-name="Path 41" d="M78.67,83.07q-.249.368-.507.735l-.106.15c-.1.144-.2.286-.308.428-.139.193-.281.384-.425.575-.068.093-.139.188-.21.281q-.151.2-.31.4c-.144.191-.291.379-.441.567s-.3.376-.452.561c-.139.169-.278.34-.419.509l-.093.109c-.188.226-.379.449-.572.673-.016.019-.03.038-.046.054-.2.226-.392.452-.591.675-.237.267-.477.531-.719.8-.155.169-.308.335-.466.5l-.076.082c-.065.071-.133.144-.2.215s-.12.128-.185.193c-.245.259-.493.517-.746.774-.272.281-.55.558-.828.833-.221.221-.447.441-.67.659a.74.74,0,0,0-.065.065c-.084.082-.169.163-.256.242-.172.166-.346.33-.52.5l-.523.49c-.458.425-.921.847-1.386,1.261s-.934.825-1.405,1.231-.942.8-1.416,1.2-.945.779-1.419,1.16c-1.9,1.522-3.786,2.944-5.611,4.254-1.874,1.348-3.677,2.571-5.336,3.658-5.385,3.519-9.277,5.581-9.277,5.581v-4.115c2.459-1.07,4.8-2.2,7.011-3.364,1.966-1.03,3.838-2.089,5.608-3.157q.347-.208.686-.417.666-.409,1.31-.817c.09-.054.177-.112.264-.169q.458-.29.907-.58L59.1,99.7c.054-.035.106-.071.158-.106s.1-.063.15-.1c.024-.019.052-.035.076-.052.06-.038.12-.079.18-.12l.43-.286q1.246-.833,2.41-1.661c.063-.046.125-.09.188-.133l.3-.218c.174-.123.346-.248.517-.373q1.389-1.005,2.653-1.988c.082-.063.161-.125.24-.188.033-.027.065-.052.1-.076.158-.123.313-.242.466-.365.221-.174.436-.346.651-.517.123-.1.242-.2.362-.294q.715-.58,1.386-1.144c.15-.125.3-.248.441-.37l.335-.286c.112-.1.221-.191.33-.283l.321-.281.278-.24a.454.454,0,0,1,.038-.035c.1-.093.207-.185.311-.275s.2-.177.3-.27.2-.177.3-.267c.2-.174.389-.349.577-.523.281-.256.553-.509.814-.754.131-.12.261-.242.387-.365.041-.038.084-.076.125-.12l.046-.041.2-.193.24-.231q.151-.143.294-.286l.18-.174q.617-.613,1.141-1.144c.136-.139.267-.272.392-.4s.256-.267.373-.392c.06-.063.12-.125.174-.185.286-.3.534-.572.749-.809.049-.054.1-.106.142-.158.191-.212.351-.392.477-.537a.47.47,0,0,1,.033-.038.292.292,0,0,0,.027-.033l.008-.008.046-.054c.019-.022.038-.044.054-.065.038-.041.068-.076.093-.106a1.07,1.07,0,0,1,.074-.087Z" transform="translate(-31.347 -60.445)" fill="#fff"/>
          <path id="Path_43" data-name="Path 43" d="M130.88,70.634A25.779,25.779,0,0,1,94.46,94.1s2.383-1.539,5.864-4.208a19.692,19.692,0,0,0,23.519-25.757h0c-.079-.218-.161-.43-.248-.643l2.525-1.833,2.459,1.787L130.17,64.6A25.759,25.759,0,0,1,130.88,70.634Z" transform="translate(-68.733 -44.866)" fill="#fff"/>
          <path id="Path_44" data-name="Path 44" d="M80.505,5.39,68.086,6.559H68.08A19.686,19.686,0,0,0,45.335,24.521c-3.821.825-6.365,1.247-6.365,1.247A25.765,25.765,0,0,1,80.505,5.39Z" transform="translate(-28.356)" fill="#fff"/>
          <path id="Path_45" data-name="Path 45" d="M97.408,32.2c-5.586,6.3-21.816,10.54-30.7,12.458A18.5,18.5,0,0,1,88.08,27.782h.005a18.354,18.354,0,0,1,8.073,3.4H96.12l.626.455c.226.18.447.368.665.561Z" transform="translate(-48.541 -20.046)" fill="#fff"/>
          <path id="Path_49" data-name="Path 49" d="M140.32,78.556a18.492,18.492,0,0,1-18.488,18.491,18.288,18.288,0,0,1-4.712-.61c6.439-4.93,16.873-13.975,22.094-24.2a18.442,18.442,0,0,1,1.109,6.316Z" transform="translate(-85.22 -52.564)" fill="#fff"/>
          <path id="Path_50" data-name="Path 50" d="M191.3,14.935l1.381,4.254-1.542-1.119-1.626-1.182L187.055,15.1l-3.742,2.718-.828.6-1.057.768.942-2.9.368-1.136.839-2.579-1.424-1.035-4.2-3.053h6.956l2.149-6.616L189.2,8.486h6.956l-4.2,3.053-1.424,1.035Z" transform="translate(-129.483 -1.361)" fill="#fff"/>
        </g>
      </g>
    </g>
  </g>
</svg>
