<svg xmlns="http://www.w3.org/2000/svg" width="74.367" height="58.029" viewBox="0 0 74.367 58.029">
  <path id="logo-mob" d="M13.087,53.439c2.742-1.193,5.349-2.452,7.818-3.751,2.193-1.148,4.28-2.33,6.255-3.521q.387-.232.766-.465.743-.455,1.461-.911c.1-.061.2-.125.3-.188q.51-.324,1.011-.647c.088-.058.176-.116.262-.17.06-.04.118-.079.176-.119s.112-.07.167-.106c.028-.022.058-.04.086-.058.067-.042.133-.088.2-.134l.481-.319q1.389-.93,2.688-1.853c.069-.051.139-.1.21-.149.113-.083.224-.161.337-.243.194-.137.386-.277.578-.417q1.548-1.121,2.958-2.218c.091-.069.179-.139.267-.21.037-.03.073-.058.11-.085.175-.137.349-.271.519-.407.246-.194.486-.386.726-.578.136-.109.27-.219.4-.328q.8-.648,1.546-1.276c.167-.139.331-.276.492-.413l.373-.319c.125-.106.247-.213.368-.316L44,33.928c.1-.088.207-.179.31-.267a.575.575,0,0,1,.043-.04q.173-.155.346-.307c.116-.1.225-.2.338-.3s.221-.2.331-.3c.221-.194.435-.389.643-.583.313-.285.617-.568.909-.842.146-.133.292-.27.431-.407.046-.042.094-.085.139-.133.018-.015.033-.031.052-.046l.224-.216c.092-.088.18-.173.267-.258q.169-.159.328-.319c.067-.064.133-.131.2-.194.458-.455.884-.881,1.273-1.276.152-.155.3-.3.437-.449s.285-.3.416-.437c.068-.07.134-.14.194-.207.319-.337.6-.638.836-.9.054-.061.109-.119.158-.176.212-.237.391-.437.532-.6a.441.441,0,0,1,.036-.042.277.277,0,0,0,.031-.037l.009-.009c.018-.021.037-.042.051-.06s.043-.049.061-.073c.042-.046.076-.086.1-.119a1.2,1.2,0,0,1,.082-.1q-.278.41-.565.82l-.119.167c-.112.161-.224.319-.343.477-.155.216-.313.428-.474.641-.076.1-.155.21-.233.313-.112.149-.229.3-.347.446-.161.212-.325.422-.492.632s-.334.419-.5.625c-.155.189-.31.38-.468.568l-.1.122c-.21.253-.422.5-.638.751-.018.022-.033.042-.051.061-.219.252-.437.5-.659.753q-.4.446-.8.886c-.174.189-.344.374-.52.559-.027.031-.058.061-.085.092-.073.078-.149.16-.228.239s-.134.143-.207.216c-.274.289-.55.577-.833.862-.3.313-.613.623-.923.93-.246.247-.5.492-.747.735a.928.928,0,0,0-.073.073c-.095.091-.188.183-.285.27-.192.185-.386.368-.58.554l-.583.546c-.51.474-1.027.945-1.546,1.407s-1.042.921-1.568,1.373-1.05.9-1.58,1.333-1.054.869-1.582,1.294c-2.114,1.7-4.223,3.284-6.258,4.745-2.09,1.5-4.1,2.868-5.951,4.08-6.006,3.925-10.346,6.224-10.346,6.224Zm15.607,1.473s2.659-1.716,6.54-4.693a21.962,21.962,0,0,0,26.23-28.728c-.087-.243-.179-.48-.276-.717L64,18.731l2.743,1.993,1.774,1.288a28.753,28.753,0,0,1-39.828,32.9ZM5.222,37.48S8.135,36.7,12.6,35.347c1.968-.595,4.237-1.3,6.689-2.105,11.783-3.864,27.832-9.924,35.243-16.312h.347A154.945,154.945,0,0,1,23.648,42.656c-1.931,1.185-3.928,2.339-5.975,3.439A90.979,90.979,0,0,1,0,53.439ZM35.578,48.932c7.181-5.5,18.819-15.587,24.642-26.987a20.559,20.559,0,0,1,1.237,7.044h0a20.625,20.625,0,0,1-20.62,20.624A20.411,20.411,0,0,1,35.578,48.932ZM40.578,0A28.589,28.589,0,0,1,58.163,6.012l-13.852,1.3h-.006A21.952,21.952,0,0,0,18.937,27.348c-4.262.921-7.1,1.391-7.1,1.391A28.741,28.741,0,0,1,40.578,0Zm.255,8.369a20.68,20.68,0,0,1,3.265.258H44.1a20.469,20.469,0,0,1,9,3.793h-.042l.7.508c.252.2.5.41.742.625h0c-6.23,7.026-24.332,11.757-34.238,13.9A20.623,20.623,0,0,1,40.833,8.369ZM34.918,26.71a1.062,1.062,0,0,1,.082-.1c-.018.024-.046.055-.082.1Zm33.85-8.074-1.813-1.319-2.743-1.993-4.173,3.032-.923.671-1.179.856,1.051-3.235.41-1.267.935-2.876-1.589-1.155-4.687-3.4h7.758l2.4-7.379,2.4,7.379h7.759l-4.687,3.4L68.09,12.506l.857,2.633,1.541,4.745Z" fill="#1c2d57"/>
</svg>
