<svg xmlns="http://www.w3.org/2000/svg" width="288.438" height="58.029" viewBox="0 0 288.438 58.029">
  <g id="main-logo-01" transform="translate(-12899.5 -2684.712)">
    <text id="Brighstar_PLC" data-name="Brighstar PLC" transform="translate(12981.938 2723.305)" fill="#fff" font-size="31" font-family="Poppins-Medium, Poppins" font-weight="500"><tspan x="0" y="0">Brighstar PLC</tspan></text>
    <g id="Layer_2" data-name="Layer 2" transform="translate(12899.5 2684.712)">
      <g id="Group_341" data-name="Group 341" transform="translate(0)">
        <path id="Path_42" data-name="Path 42" d="M102.076,101.5c-.058.039-.115.079-.176.118.115-.076.231-.149.343-.225C102.189,101.433,102.134,101.469,102.076,101.5Zm16.358-12.916.052-.046.225-.216C118.62,88.41,118.528,88.5,118.434,88.587Zm5.21-5.419c.036-.043.064-.073.082-.1A1.2,1.2,0,0,0,123.644,83.167Z" transform="translate(-70.946 -57.836)" fill="#fff"/>
        <path id="Path_46" data-name="Path 46" d="M102.48,143.374c.085-.055.17-.109.252-.164-.027.018-.058.036-.085.058C102.592,143.3,102.538,143.341,102.48,143.374Z" transform="translate(-71.349 -99.707)" fill="#fff"/>
        <path id="Path_47" data-name="Path 47" d="M145.554,110.719c-.046.036-.088.073-.134.112.061-.052.118-.1.176-.152A.5.5,0,0,0,145.554,110.719Z" transform="translate(-101.245 -77.058)" fill="#fff"/>
        <path id="Path_48" data-name="Path 48" d="M173.562,83.07c-.018.024-.046.055-.082.1A1.192,1.192,0,0,1,173.562,83.07Z" transform="translate(-120.782 -57.836)" fill="#fff"/>
        <g id="Group_404" data-name="Group 404">
          <path id="Path_40" data-name="Path 40" d="M54.879,55.73A154.96,154.96,0,0,1,23.649,81.456c-1.932,1.185-3.928,2.339-5.975,3.439A91.005,91.005,0,0,1,0,92.24L5.222,76.28S8.135,75.5,12.6,74.148c1.968-.6,4.238-1.3,6.689-2.105,11.783-3.864,27.832-9.924,35.244-16.313h.346Z" transform="translate(0 -38.801)" fill="#fff"/>
          <path id="Path_41" data-name="Path 41" d="M82.774,83.07q-.278.41-.565.82c-.039.055-.079.112-.118.167-.112.161-.225.319-.343.477-.155.216-.313.428-.474.641-.076.1-.155.21-.234.313q-.169.223-.346.447c-.161.213-.325.422-.492.632s-.334.419-.5.626c-.155.188-.31.38-.468.568l-.1.122c-.21.252-.422.5-.638.75-.018.021-.033.043-.052.061-.219.252-.437.5-.659.753-.264.3-.532.592-.8.887-.173.188-.343.374-.519.559-.027.03-.058.061-.085.091-.073.079-.149.161-.228.24s-.134.143-.207.216c-.273.289-.55.577-.832.863-.3.313-.614.623-.923.93-.246.246-.5.492-.747.735a.824.824,0,0,0-.073.073c-.094.091-.188.182-.286.27-.191.185-.386.368-.58.553l-.583.547c-.51.474-1.027.945-1.546,1.406s-1.042.92-1.567,1.373-1.051.9-1.58,1.334-1.054.869-1.583,1.294c-2.114,1.7-4.222,3.284-6.258,4.745-2.09,1.5-4.1,2.868-5.951,4.08-6.006,3.925-10.346,6.224-10.346,6.224v-4.59c2.743-1.194,5.349-2.451,7.819-3.752,2.193-1.148,4.28-2.33,6.255-3.521q.387-.232.766-.465.743-.456,1.461-.911c.1-.061.2-.125.295-.188q.51-.324,1.012-.647l.261-.17c.061-.039.118-.079.176-.118s.112-.07.167-.106c.027-.021.058-.039.085-.058.067-.043.134-.088.2-.134l.48-.319q1.39-.93,2.688-1.853c.07-.052.14-.1.21-.149.112-.082.225-.161.337-.243.194-.137.386-.276.577-.416q1.549-1.121,2.959-2.218c.091-.07.179-.14.267-.21.036-.03.073-.058.109-.085.176-.137.349-.27.519-.407.246-.194.486-.386.726-.577.137-.109.27-.219.4-.328q.8-.647,1.546-1.276c.167-.14.331-.276.492-.413l.374-.319c.125-.106.246-.213.368-.316l.358-.313c.1-.088.207-.179.31-.267a.508.508,0,0,1,.043-.039c.115-.1.231-.207.346-.307s.225-.2.337-.3.222-.2.331-.3c.222-.194.434-.389.644-.583.313-.286.617-.568.908-.841.146-.134.292-.27.431-.407.046-.043.094-.085.14-.134l.052-.046.225-.216.267-.258q.169-.159.328-.319l.2-.194q.688-.684,1.273-1.276c.152-.155.3-.3.437-.45s.286-.3.416-.437c.067-.07.134-.14.194-.207.319-.337.6-.638.835-.9.055-.061.109-.118.158-.176.213-.237.392-.437.532-.6a.523.523,0,0,1,.036-.043.326.326,0,0,0,.03-.036l.009-.009.052-.061c.021-.024.043-.049.061-.073.043-.046.076-.085.1-.118a1.194,1.194,0,0,1,.082-.1Z" transform="translate(-29.994 -57.836)" fill="#fff"/>
          <path id="Path_43" data-name="Path 43" d="M135.08,71.669A28.752,28.752,0,0,1,94.46,97.842s2.658-1.716,6.54-4.693a21.963,21.963,0,0,0,26.231-28.728h0c-.088-.243-.179-.48-.276-.717l2.816-2.044,2.743,1.993,1.774,1.288A28.729,28.729,0,0,1,135.08,71.669Z" transform="translate(-65.766 -42.929)" fill="#fff"/>
          <path id="Path_44" data-name="Path 44" d="M85.3,6.012l-13.852,1.3h-.006A21.957,21.957,0,0,0,46.069,27.349c-4.262.92-7.1,1.391-7.1,1.391A28.736,28.736,0,0,1,85.3,6.012Z" transform="translate(-27.132)" fill="#fff"/>
          <path id="Path_45" data-name="Path 45" d="M100.948,32.735C94.718,39.762,76.616,44.491,66.71,46.63A20.638,20.638,0,0,1,90.544,27.808h.006a20.47,20.47,0,0,1,9,3.794h-.043l.7.507c.252.2.5.41.741.626Z" transform="translate(-46.446 -19.181)" fill="#fff"/>
          <path id="Path_49" data-name="Path 49" d="M143,79.284a20.624,20.624,0,0,1-20.62,20.623,20.4,20.4,0,0,1-5.255-.68c7.181-5.5,18.819-15.587,24.642-26.987A20.569,20.569,0,0,1,143,79.284Z" transform="translate(-81.542 -50.295)" fill="#fff"/>
          <path id="Path_50" data-name="Path 50" d="M192.841,16.442l1.54,4.745-1.719-1.249-1.814-1.318-2.743-1.993-4.174,3.032-.923.671-1.179.857,1.051-3.235.41-1.267.936-2.877-1.589-1.154L177.95,9.249h7.758l2.4-7.379,2.4,7.379h7.758l-4.687,3.405-1.589,1.154Z" transform="translate(-123.893 -1.302)" fill="#fff"/>
        </g>
      </g>
    </g>
  </g>
</svg>
