<svg xmlns="http://www.w3.org/2000/svg" width="286.635" height="58.029" viewBox="0 0 286.635 58.029">
  <path id="main-logo" d="M13.087,53.439c2.742-1.193,5.349-2.452,7.818-3.751,2.193-1.148,4.28-2.33,6.255-3.521q.387-.232.766-.465.743-.455,1.461-.911c.1-.061.2-.125.294-.188q.512-.324,1.012-.647c.088-.058.176-.116.262-.17l.023-.015.152-.1.009-.005.164-.105-.006,0,.006,0,0,0,0,0c.024-.017.049-.032.072-.048.067-.043.133-.088.2-.134l.481-.319q1.389-.93,2.688-1.853c.069-.051.139-.1.21-.149.113-.083.224-.161.337-.244.194-.136.386-.276.578-.416q1.548-1.121,2.958-2.218c.091-.069.179-.139.267-.21.037-.031.073-.058.11-.085.175-.137.349-.271.519-.408l.726-.577c.136-.109.27-.219.4-.328q.8-.648,1.546-1.276c.167-.139.331-.276.492-.413l.373-.319c.125-.107.247-.213.368-.316L44,33.928c.1-.088.207-.179.31-.267l-.038.032.053-.047.028-.024q.173-.155.346-.307c.116-.1.225-.2.338-.3s.221-.2.331-.3c.221-.194.435-.389.643-.583.313-.285.617-.568.909-.842.146-.133.292-.27.431-.407.046-.042.094-.086.139-.134l.008-.006.268-.255-.224.216.224-.216.267-.258q.169-.159.328-.319c.067-.064.133-.131.2-.194.458-.455.884-.881,1.273-1.276.152-.155.3-.3.437-.449s.285-.3.416-.437c.068-.07.134-.14.194-.207.319-.337.6-.638.836-.9.054-.061.109-.119.158-.176.212-.237.391-.437.532-.6a.441.441,0,0,1,.036-.042.277.277,0,0,0,.031-.037l.009-.009c.018-.021.037-.042.051-.06s.043-.049.061-.073c.042-.046.076-.086.1-.119a1.2,1.2,0,0,1,.082-.1q-.278.41-.565.82l-.119.167c-.112.161-.224.319-.343.477-.155.216-.313.428-.474.641-.076.1-.155.21-.233.313-.112.149-.229.3-.347.446-.161.212-.325.422-.492.632s-.334.419-.5.625c-.155.188-.31.38-.468.568l-.1.122c-.21.253-.422.5-.638.751-.018.022-.033.042-.051.061-.219.252-.437.5-.659.753q-.4.446-.8.886c-.174.188-.344.374-.52.559-.027.031-.058.061-.085.092-.073.078-.149.16-.228.239s-.134.143-.207.216c-.274.288-.55.577-.833.862-.3.313-.613.623-.923.93-.246.247-.5.492-.747.735a.928.928,0,0,0-.073.073c-.095.091-.188.183-.285.27-.192.185-.386.368-.58.554l-.583.546c-.51.474-1.027.945-1.546,1.407s-1.042.921-1.568,1.373-1.05.9-1.58,1.333-1.054.869-1.582,1.294c-2.114,1.7-4.223,3.284-6.258,4.745-2.09,1.5-4.1,2.868-5.951,4.08-6.006,3.925-10.346,6.224-10.346,6.224Zm15.607,1.473s2.659-1.716,6.54-4.693a21.962,21.962,0,0,0,26.23-28.728c-.087-.243-.179-.48-.276-.717L64,18.731l2.743,1.993,1.774,1.288a28.753,28.753,0,0,1-39.828,32.9ZM5.222,37.48S8.135,36.7,12.6,35.347c1.968-.595,4.237-1.3,6.689-2.105,11.783-3.864,27.832-9.923,35.243-16.312h.347A154.945,154.945,0,0,1,23.648,42.656c-1.931,1.185-3.928,2.339-5.975,3.439A90.979,90.979,0,0,1,0,53.439ZM35.578,48.932c7.181-5.5,18.819-15.587,24.642-26.987a20.559,20.559,0,0,1,1.237,7.044h0a20.625,20.625,0,0,1-20.62,20.624A20.411,20.411,0,0,1,35.578,48.932ZM126.644,45.4a6.005,6.005,0,0,1-2.6-4.418h3.5a3.8,3.8,0,0,0,1.721,2.155,5.821,5.821,0,0,0,3.146.822,4.7,4.7,0,0,0,3.456-1.3,5.085,5.085,0,0,0,1.318-3.782V36.02a7.344,7.344,0,0,1-5.921,2.852,7.644,7.644,0,0,1-4.076-1.131,7.979,7.979,0,0,1-2.914-3.162,9.732,9.732,0,0,1-1.069-4.6,9.458,9.458,0,0,1,1.069-4.558,7.794,7.794,0,0,1,6.99-4.185,7.572,7.572,0,0,1,3.519.791,6.752,6.752,0,0,1,2.4,1.968v-2.48h3.565v17.36a8.724,8.724,0,0,1-.992,4.2,7.168,7.168,0,0,1-2.867,2.9,9,9,0,0,1-4.479,1.054A9.724,9.724,0,0,1,126.644,45.4Zm2.821-20.429a5.033,5.033,0,0,0-1.906,1.953,6.094,6.094,0,0,0-.728,3.054,6.359,6.359,0,0,0,.728,3.1,5.148,5.148,0,0,0,1.922,2.03,4.924,4.924,0,0,0,2.526.7,4.979,4.979,0,0,0,2.542-.682,5.086,5.086,0,0,0,1.907-2,6.282,6.282,0,0,0,.728-3.085,6.2,6.2,0,0,0-.728-3.069,5.115,5.115,0,0,0-1.907-1.984,4.988,4.988,0,0,0-2.542-.682A5.079,5.079,0,0,0,129.464,24.969ZM31.307,43.554l0,0Zm165.086-5.813a8.028,8.028,0,0,1-2.9-3.162,9.732,9.732,0,0,1-1.069-4.6,9.458,9.458,0,0,1,1.069-4.558,7.794,7.794,0,0,1,6.991-4.185,7.452,7.452,0,0,1,3.518.791,7.13,7.13,0,0,1,2.4,1.968v-2.48h3.565V38.593h-3.565V36.051a7.02,7.02,0,0,1-2.45,2.015,7.927,7.927,0,0,1-7.564-.326Zm2.294-12.772a5.021,5.021,0,0,0-1.906,1.953,6.1,6.1,0,0,0-.729,3.054,6.359,6.359,0,0,0,.729,3.1,5.139,5.139,0,0,0,1.922,2.03,4.927,4.927,0,0,0,2.526.7,4.982,4.982,0,0,0,2.542-.682,5.09,5.09,0,0,0,1.906-2,6.273,6.273,0,0,0,.729-3.085,6.185,6.185,0,0,0-.729-3.069,5.12,5.12,0,0,0-1.906-1.984,4.991,4.991,0,0,0-2.542-.682A5.073,5.073,0,0,0,198.688,24.969ZM168.106,38.144a6.351,6.351,0,0,1-2.526-1.985,4.944,4.944,0,0,1-.992-2.805h3.658a2.5,2.5,0,0,0,1.039,1.813,3.77,3.77,0,0,0,2.371.728,3.99,3.99,0,0,0,2.309-.573,1.73,1.73,0,0,0,.822-1.472,1.51,1.51,0,0,0-.914-1.426,17.063,17.063,0,0,0-2.9-1.023,27.74,27.74,0,0,1-3.131-1.023,5.484,5.484,0,0,1-2.092-1.518,3.98,3.98,0,0,1-.884-2.7,4.208,4.208,0,0,1,.806-2.5,5.364,5.364,0,0,1,2.309-1.782,8.614,8.614,0,0,1,3.456-.652,7.143,7.143,0,0,1,4.7,1.472,5.29,5.29,0,0,1,1.906,4.015h-3.534a2.516,2.516,0,0,0-.93-1.829,3.479,3.479,0,0,0-2.264-.682,3.674,3.674,0,0,0-2.138.527,1.634,1.634,0,0,0-.744,1.395,1.512,1.512,0,0,0,.5,1.148,3.536,3.536,0,0,0,1.21.728q.713.265,2.108.667A22.9,22.9,0,0,1,175.3,29.68a5.684,5.684,0,0,1,2.061,1.5,3.979,3.979,0,0,1,.9,2.635,4.42,4.42,0,0,1-.806,2.6,5.337,5.337,0,0,1-2.278,1.8,8.495,8.495,0,0,1-3.457.651A8.618,8.618,0,0,1,168.106,38.144Zm102.967-.775a10.514,10.514,0,0,1-3.983-3.922,11,11,0,0,1-1.473-5.673,11,11,0,0,1,1.473-5.673,10.479,10.479,0,0,1,4-3.922,11.758,11.758,0,0,1,11.656.279,9.628,9.628,0,0,1,3.891,4.79h-4.247a5.693,5.693,0,0,0-2.325-2.542,6.9,6.9,0,0,0-3.442-.837,7.526,7.526,0,0,0-3.812.96,6.688,6.688,0,0,0-2.62,2.759,8.87,8.87,0,0,0-.946,4.185,8.87,8.87,0,0,0,.946,4.185,6.794,6.794,0,0,0,2.62,2.775,7.428,7.428,0,0,0,3.812.977,6.9,6.9,0,0,0,3.442-.837,5.7,5.7,0,0,0,2.325-2.542h4.247a9.541,9.541,0,0,1-3.891,4.775,11.319,11.319,0,0,1-6.123,1.674A11.141,11.141,0,0,1,271.073,37.369Zm-18.042,1.224V17.048h3.534V35.741h7.285v2.852Zm-18.445,0V17.048h7.439a9.4,9.4,0,0,1,4.2.852,5.922,5.922,0,0,1,2.573,2.31,6.318,6.318,0,0,1,.853,3.254,6.5,6.5,0,0,1-.776,3.1,5.811,5.811,0,0,1-2.479,2.372,9.21,9.21,0,0,1-4.371.914h-3.906v8.742Zm3.533-11.625h3.906a4.3,4.3,0,0,0,3.007-.914,3.344,3.344,0,0,0,.993-2.588q0-3.534-4-3.533h-3.906Zm-23.5,11.625V21.512h3.534v2.48a5.542,5.542,0,0,1,2.062-2.03,6.091,6.091,0,0,1,3.053-.729v3.658h-.9a4.3,4.3,0,0,0-3.146,1.054,5.04,5.04,0,0,0-1.069,3.658v8.99Zm-27.063,0a5.374,5.374,0,0,1-3.658-1.116,4.6,4.6,0,0,1-1.271-3.627V24.4h-2.015V21.512h2.015V17.265h3.565v4.247h4.154V24.4h-4.154V33.85a1.815,1.815,0,0,0,.449,1.38,2.235,2.235,0,0,0,1.535.419h2.17v2.945Zm-30.038,0V29.045a4.956,4.956,0,0,0-1.148-3.518,4.081,4.081,0,0,0-3.131-1.225,4.133,4.133,0,0,0-3.146,1.225,4.915,4.915,0,0,0-1.162,3.518v9.548H145.4V15.653h3.534V23.5a5.911,5.911,0,0,1,2.278-1.674,7.607,7.607,0,0,1,3.023-.589,7.166,7.166,0,0,1,3.488.837,5.959,5.959,0,0,1,2.417,2.48,8.268,8.268,0,0,1,.884,3.968V38.593Zm-41.324,0V21.512h3.534V38.593Zm-11.9,0V21.512h3.533v2.48a5.542,5.542,0,0,1,2.062-2.03,6.1,6.1,0,0,1,3.054-.729v3.658h-.9a4.3,4.3,0,0,0-3.146,1.054,5.036,5.036,0,0,0-1.07,3.658v8.99Zm-19.53,0V17.048h8.214a8.823,8.823,0,0,1,3.783.744,5.55,5.55,0,0,1,2.387,2,5.083,5.083,0,0,1,.805,2.805,4.8,4.8,0,0,1-.992,3.1,5.77,5.77,0,0,1-2.666,1.829,4.762,4.762,0,0,1,2.945,1.83,5.531,5.531,0,0,1,.356,6.4,5.771,5.771,0,0,1-2.464,2.077,8.707,8.707,0,0,1-3.751.76ZM88.3,35.71h4.774a4.224,4.224,0,0,0,2.821-.868,3,3,0,0,0,1.023-2.417,3.137,3.137,0,0,0-1.085-2.511,4.275,4.275,0,0,0-2.883-.931H88.3Zm0-9.61h4.371a4.2,4.2,0,0,0,2.713-.79,2.763,2.763,0,0,0,.977-2.279,2.819,2.819,0,0,0-.977-2.279,4.092,4.092,0,0,0-2.713-.821H88.3ZM44.27,33.692l-.1.081ZM40.578,0A28.589,28.589,0,0,1,58.163,6.012l-13.852,1.3h-.006A21.952,21.952,0,0,0,18.937,27.348c-4.262.921-7.1,1.391-7.1,1.391A28.741,28.741,0,0,1,40.578,0Zm.255,8.369a20.68,20.68,0,0,1,3.265.258H44.1a20.469,20.469,0,0,1,9,3.793h-.042l.7.508c.252.2.5.41.742.625h0c-6.23,7.026-24.332,11.757-34.238,13.9A20.623,20.623,0,0,1,40.833,8.369ZM68.768,18.636l-1.813-1.319-2.743-1.993-4.173,3.032-.923.671-1.179.856,1.051-3.235.41-1.267.935-2.876-1.589-1.155-4.687-3.4h7.758l2.4-7.379,2.4,7.379h7.759l-4.687,3.4L68.09,12.506l.857,2.633,1.541,4.745Zm47.615-.039a2.263,2.263,0,0,1,1.612-3.875,2.155,2.155,0,0,1,1.581.651,2.322,2.322,0,0,1,0,3.224,2.152,2.152,0,0,1-1.581.652A2.186,2.186,0,0,1,116.383,18.6Z" fill="#1c2d57"/>
</svg>
