<svg xmlns="http://www.w3.org/2000/svg" width="651" height="676" viewBox="0 0 651 676">
  <g id="bg-material-03" transform="translate(-9266 -9543)" style="isolation: isolate">
    <path id="Path_71" data-name="Path 71" d="M9487.6,9815.589l217.189,139.622-152.551,113.767,74.982-292.172-129.278,137.036,188.747,188.748,18.1-478.334-152.551,131.865,95.668,116.352,209.434-126.694-108.595,258.56,12.927-380.082L9647.906,9797.49l222.361,33.612,38.783-206.847-106.009,56.883,28.441,232.7-95.667-23.271-18.1,178.406-279.244-103.424,59.469-284.415,139.621,28.442-100.838,87.909-116.351-87.909,67.225-157.722,173.234,139.622,113.766,54.3-56.882-193.919L9536.726,9652.7l-131.864-28.441,33.612,191.333-64.641,74.982,124.109,139.622,54.3-116.352,108.6,103.425-77.568,103.424-162.891-62.056,41.369,155.137,62.054-168.064-199.091-67.226,49.126,142.209,46.542-230.119-121.524-113.766-28.441,155.136,103.424-134.451-103.424,261.145,134.452,129.28-49.127-255.974-18.1-250.8,67.226,95.667Z" transform="translate(-0.48 -0.966)" fill="none" stroke="#3671ea" stroke-width="2"/>
    <ellipse id="Ellipse_36" data-name="Ellipse 36" cx="7" cy="8" rx="7" ry="8" transform="translate(9410 9881)" fill="#13b7ff"/>
    <ellipse id="Ellipse_37" data-name="Ellipse 37" cx="7.5" cy="8" rx="7.5" ry="8" transform="translate(9431 9955)" fill="#13b7ff"/>
    <circle id="Ellipse_38" data-name="Ellipse 38" cx="7" cy="7" r="7" transform="translate(9492 9907)" fill="#13b7ff"/>
    <ellipse id="Ellipse_39" data-name="Ellipse 39" cx="7" cy="7.5" rx="7" ry="7.5" transform="translate(9492 10021)" fill="#13b7ff"/>
    <ellipse id="Ellipse_40" data-name="Ellipse 40" cx="7.5" cy="7" rx="7.5" ry="7" transform="translate(9544 9912)" fill="#13b7ff"/>
    <ellipse id="Ellipse_41" data-name="Ellipse 41" cx="8" cy="7.5" rx="8" ry="7.5" transform="translate(9617 9770)" fill="#13b7ff"/>
    <circle id="Ellipse_42" data-name="Ellipse 42" cx="7.5" cy="7.5" r="7.5" transform="translate(9640 9862)" fill="#13b7ff"/>
    <circle id="Ellipse_43" data-name="Ellipse 43" cx="7.5" cy="7.5" r="7.5" transform="translate(9545 10062)" fill="#13b7ff"/>
    <ellipse id="Ellipse_44" data-name="Ellipse 44" cx="8" cy="7" rx="8" ry="7" transform="translate(9514 10040)" fill="#13b7ff"/>
    <circle id="Ellipse_45" data-name="Ellipse 45" cx="7.5" cy="7.5" r="7.5" transform="translate(9455 10204)" fill="#13b7ff"/>
    <ellipse id="Ellipse_46" data-name="Ellipse 46" cx="7" cy="7.5" rx="7" ry="7.5" transform="translate(9413 10050)" fill="#13b7ff"/>
    <circle id="Ellipse_47" data-name="Ellipse 47" cx="7.5" cy="7.5" r="7.5" transform="translate(9398 10180)" fill="#13b7ff"/>
    <circle id="Ellipse_48" data-name="Ellipse 48" cx="7.5" cy="7.5" r="7.5" transform="translate(9367 10113)" fill="#13b7ff"/>
    <ellipse id="Ellipse_49" data-name="Ellipse 49" cx="7" cy="7.5" rx="7" ry="7.5" transform="translate(9319 9971)" fill="#13b7ff"/>
    <circle id="Ellipse_50" data-name="Ellipse 50" cx="7.5" cy="7.5" r="7.5" transform="translate(9367 9790)" fill="#13b7ff"/>
    <circle id="Ellipse_51" data-name="Ellipse 51" cx="7.5" cy="7.5" r="7.5" transform="translate(9266 9921)" fill="#13b7ff"/>
    <ellipse id="Ellipse_52" data-name="Ellipse 52" cx="8" cy="7.5" rx="8" ry="7.5" transform="translate(9291 9770)" fill="#13b7ff"/>
    <ellipse id="Ellipse_53" data-name="Ellipse 53" cx="8" cy="7.5" rx="8" ry="7.5" transform="translate(9333 9679)" fill="#13b7ff"/>
    <ellipse id="Ellipse_54" data-name="Ellipse 54" cx="8" cy="7.5" rx="8" ry="7.5" transform="translate(9397 9770)" fill="#13b7ff"/>
    <ellipse id="Ellipse_55" data-name="Ellipse 55" cx="7.5" cy="8" rx="7.5" ry="8" transform="translate(9431 9805)" fill="#13b7ff"/>
    <ellipse id="Ellipse_56" data-name="Ellipse 56" cx="7.5" cy="8" rx="7.5" ry="8" transform="translate(9367 9881)" fill="#13b7ff"/>
    <circle id="Ellipse_57" data-name="Ellipse 57" cx="7.5" cy="7.5" r="7.5" transform="translate(9530 9790)" fill="#13b7ff"/>
    <circle id="Ellipse_58" data-name="Ellipse 58" cx="7.5" cy="7.5" r="7.5" transform="translate(9547 9746)" fill="#13b7ff"/>
    <ellipse id="Ellipse_59" data-name="Ellipse 59" cx="7.5" cy="8" rx="7.5" ry="8" transform="translate(9627 9702)" fill="#13b7ff"/>
    <ellipse id="Ellipse_60" data-name="Ellipse 60" cx="7" cy="7.5" rx="7" ry="7.5" transform="translate(9491 9675)" fill="#13b7ff"/>
    <ellipse id="Ellipse_61" data-name="Ellipse 61" cx="7" cy="8" rx="7" ry="8" transform="translate(9413 9699)" fill="#13b7ff"/>
    <circle id="Ellipse_62" data-name="Ellipse 62" cx="7.5" cy="7.5" r="7.5" transform="translate(9400 9616)" fill="#13b7ff"/>
    <circle id="Ellipse_63" data-name="Ellipse 63" cx="7.5" cy="7.5" r="7.5" transform="translate(9529 9641)" fill="#13b7ff"/>
    <circle id="Ellipse_64" data-name="Ellipse 64" cx="7.5" cy="7.5" r="7.5" transform="translate(9480 9545)" fill="#13b7ff"/>
    <ellipse id="Ellipse_65" data-name="Ellipse 65" cx="8" cy="7.5" rx="8" ry="7.5" transform="translate(9655 9683)" fill="#13b7ff"/>
    <ellipse id="Ellipse_66" data-name="Ellipse 66" cx="8" cy="7.5" rx="8" ry="7.5" transform="translate(9765 9739)" fill="#13b7ff"/>
    <circle id="Ellipse_67" data-name="Ellipse 67" cx="7.5" cy="7.5" r="7.5" transform="translate(9640 9790)" fill="#13b7ff"/>
    <ellipse id="Ellipse_68" data-name="Ellipse 68" cx="8" cy="7.5" rx="8" ry="7.5" transform="translate(9697 9616)" fill="#13b7ff"/>
    <ellipse id="Ellipse_69" data-name="Ellipse 69" cx="7" cy="7.5" rx="7" ry="7.5" transform="translate(9713 9543)" fill="#13b7ff"/>
    <ellipse id="Ellipse_70" data-name="Ellipse 70" cx="7" cy="8" rx="7" ry="8" transform="translate(9755 9618)" fill="#13b7ff"/>
    <ellipse id="Ellipse_71" data-name="Ellipse 71" cx="7.5" cy="8" rx="7.5" ry="8" transform="translate(9849 9740)" fill="#13b7ff"/>
    <circle id="Ellipse_72" data-name="Ellipse 72" cx="7.5" cy="7.5" r="7.5" transform="translate(9825 9906)" fill="#13b7ff"/>
    <circle id="Ellipse_73" data-name="Ellipse 73" cx="7.5" cy="7.5" r="7.5" transform="translate(9864 9825)" fill="#13b7ff"/>
    <ellipse id="Ellipse_74" data-name="Ellipse 74" cx="7" cy="7.5" rx="7" ry="7.5" transform="translate(9795 9675)" fill="#13b7ff"/>
    <circle id="Ellipse_75" data-name="Ellipse 75" cx="8" cy="8" r="8" transform="translate(9901 9618)" fill="#13b7ff"/>
    <circle id="Ellipse_76" data-name="Ellipse 76" cx="7.5" cy="7.5" r="7.5" transform="translate(9741 9994)" fill="#13b7ff"/>
    <ellipse id="Ellipse_77" data-name="Ellipse 77" cx="8" cy="7.5" rx="8" ry="7.5" transform="translate(9727 9886)" fill="#13b7ff"/>
    <ellipse id="Ellipse_78" data-name="Ellipse 78" cx="7.5" cy="7" rx="7.5" ry="7" transform="translate(9694 9947)" fill="#13b7ff"/>
    <ellipse id="Ellipse_79" data-name="Ellipse 79" cx="8" cy="7.5" rx="8" ry="7.5" transform="translate(9649 10009)" fill="#13b7ff"/>
    <ellipse id="Ellipse_80" data-name="Ellipse 80" cx="7" cy="7.5" rx="7" ry="7.5" transform="translate(9713 10058)" fill="#13b7ff"/>
    <ellipse id="Ellipse_81" data-name="Ellipse 81" cx="8" cy="7.5" rx="8" ry="7.5" transform="translate(9678 10090)" fill="#13b7ff"/>
    <ellipse id="Ellipse_82" data-name="Ellipse 82" cx="8" cy="7.5" rx="8" ry="7.5" transform="translate(9574 10113)" fill="#13b7ff"/>
  </g>
</svg>
