<svg xmlns="http://www.w3.org/2000/svg" width="46.59" height="40.766" viewBox="0 0 46.59 40.766">
  <g id="ic-devices" transform="translate(-2.912 -5.824)">
    <path id="Path_25" data-name="Path 25" d="M36.559,13H24.912A2.912,2.912,0,0,0,22,15.912V37.751a2.912,2.912,0,0,0,2.912,2.912H36.559a2.912,2.912,0,0,0,2.912-2.912V15.912A2.912,2.912,0,0,0,36.559,13Zm0,2.912V31.927H24.912V15.912ZM24.912,37.751V34.257H36.559v3.494Z" transform="translate(10.031 5.927)" fill="#333"/>
    <path id="Path_26" data-name="Path 26" d="M28.207,30.207H4.912V6.912H39.854v7.28h2.912V6.912A2.912,2.912,0,0,0,39.854,4H4.912A2.912,2.912,0,0,0,2,6.912V30.207a2.912,2.912,0,0,0,2.912,2.912H28.207Z" transform="translate(0.912 1.824)" fill="#333"/>
    <path id="Path_27" data-name="Path 27" d="M25.471,26H9.456a1.456,1.456,0,1,0,0,2.912H25.471Z" transform="translate(3.647 11.854)" fill="#333"/>
  </g>
</svg>
