<svg xmlns="http://www.w3.org/2000/svg" width="37.962" height="42" viewBox="0 0 37.962 42">
  <path id="ic-shield" d="M15.082,22.865,19.515,27.3l8.865-8.865m11.082,4.433c0,9.887-12.1,17.052-16.309,19.245a3.553,3.553,0,0,1-1,.417,2.514,2.514,0,0,1-.847,0,3.553,3.553,0,0,1-1-.417C16.1,39.917,4,32.752,4,22.865V14.481a10.087,10.087,0,0,1,.29-3.42A4.433,4.433,0,0,1,5.5,9.313,10.088,10.088,0,0,1,8.6,7.841L20.486,3.384a4.709,4.709,0,0,1,.928-.293,2.217,2.217,0,0,1,.634,0,4.709,4.709,0,0,1,.928.293L34.86,7.841a10.086,10.086,0,0,1,3.1,1.472,4.432,4.432,0,0,1,1.212,1.749,10.085,10.085,0,0,1,.29,3.42Z" transform="translate(-2.75 -1.818)" fill="none" stroke="#333" stroke-linecap="round" stroke-linejoin="round" stroke-width="2.5"/>
</svg>
