<svg xmlns="http://www.w3.org/2000/svg" width="13.325" height="23.574" viewBox="0 0 13.325 23.574">
  <path id="ic-facebook" d="M22.25,6.612h2.562a.513.513,0,0,0,.512-.512V2.647a.511.511,0,0,0-.474-.511C24.035,2.078,22.442,2,21.3,2c-3.147,0-5.2,1.886-5.2,5.313v3.4H12.512a.513.513,0,0,0-.512.512v3.587a.513.513,0,0,0,.512.512H16.1v9.737a.513.513,0,0,0,.512.512H20.2a.513.513,0,0,0,.512-.512V15.325h3.7a.512.512,0,0,0,.509-.456l.4-3.587a.512.512,0,0,0-.509-.569h-4.1V8.15A1.537,1.537,0,0,1,22.25,6.612Z" transform="translate(-12 -2)" fill="#ebebeb"/>
</svg>
