<svg xmlns="http://www.w3.org/2000/svg" width="23.574" height="23.574" viewBox="0 0 23.574 23.574">
  <path id="ic-instagram" d="M9.965,3A6.972,6.972,0,0,0,3,9.965v9.644a6.972,6.972,0,0,0,6.965,6.965h9.644a6.972,6.972,0,0,0,6.965-6.965V9.965A6.972,6.972,0,0,0,19.609,3ZM21.216,7.286a1.072,1.072,0,1,1-1.072,1.072A1.075,1.075,0,0,1,21.216,7.286ZM14.787,8.894a5.894,5.894,0,1,1-5.894,5.894A5.9,5.9,0,0,1,14.787,8.894Zm0,1.072a4.822,4.822,0,1,0,4.822,4.822A4.829,4.829,0,0,0,14.787,9.965Z" transform="translate(-3 -3)" fill="#ebebeb"/>
</svg>
