<svg xmlns="http://www.w3.org/2000/svg" width="49.5" height="49.5" viewBox="0 0 49.5 49.5">
  <path id="ic-linkedin-outlined" d="M11.9,2A9.9,9.9,0,0,0,2,11.9V41.6a9.9,9.9,0,0,0,9.9,9.9H41.6a9.9,9.9,0,0,0,9.9-9.9V11.9A9.9,9.9,0,0,0,41.6,2ZM6.95,11.9A4.95,4.95,0,0,1,11.9,6.95H41.6a4.95,4.95,0,0,1,4.95,4.95V41.6a4.95,4.95,0,0,1-4.95,4.95H11.9A4.95,4.95,0,0,1,6.95,41.6ZM19.325,24.275a2.475,2.475,0,0,0-4.95,0v14.85a2.475,2.475,0,1,0,4.95,0Zm1.237-8.662A3.713,3.713,0,1,1,16.85,11.9,3.712,3.712,0,0,1,20.563,15.613ZM26.75,21.8a2.472,2.472,0,0,1,2.03,1.059A8.688,8.688,0,0,1,32.937,21.8c5.345,0,8.663,4.766,8.663,8.839v8.474h0a2.475,2.475,0,1,1-4.95,0h0V30.639a3.948,3.948,0,0,0-3.713-3.889,4.356,4.356,0,0,0-3.712,2.384v9.982h0a2.475,2.475,0,1,1-4.95,0h0V24.3h0A2.475,2.475,0,0,1,26.75,21.8Z" transform="translate(-2 -2)" fill="#fff" fill-rule="evenodd"/>
</svg>
