<svg xmlns="http://www.w3.org/2000/svg" width="23.574" height="23.574" viewBox="0 0 23.574 23.574">
  <path id="ic-linkedin" d="M24.768,4H6.806A2.807,2.807,0,0,0,4,6.806V24.768a2.807,2.807,0,0,0,2.806,2.806H24.768a2.807,2.807,0,0,0,2.806-2.806V6.806A2.807,2.807,0,0,0,24.768,4ZM11.3,12.981V23.645H7.929V12.981Zm-3.368-3.1A1.5,1.5,0,0,1,9.613,8.49,1.519,1.519,0,0,1,11.3,9.877,1.494,1.494,0,0,1,9.613,11.3,1.519,1.519,0,0,1,7.929,9.877ZM23.645,23.645H20.277V18.032a2.018,2.018,0,0,0-1.965-2.268h-.045c-1.358,0-1.92,1.156-1.92,2.268v5.613H12.981V12.981h3.368v1.437a4.2,4.2,0,0,1,3.261-1.437c2.228,0,4.036,1.532,4.036,4.636Z" transform="translate(-4 -4)" fill="#ebebeb"/>
</svg>
