<svg xmlns="http://www.w3.org/2000/svg" width="47.149" height="34.291" viewBox="0 0 47.149 34.291">
  <path id="ic-mail-outlined" d="M41.72,4a6.429,6.429,0,0,1,6.429,6.429V31.861a6.429,6.429,0,0,1-6.429,6.429H7.429A6.429,6.429,0,0,1,1,31.861V10.429A6.429,6.429,0,0,1,7.429,4Zm-1.6,4.286H9.031L23.247,19.509a2.143,2.143,0,0,0,2.656,0Zm-34.832,2.5v21.07A2.143,2.143,0,0,0,7.429,34H41.72a2.143,2.143,0,0,0,2.143-2.143V10.791l-15.3,12.082a6.429,6.429,0,0,1-7.968,0Z" transform="translate(-1 -4)" fill="#fff" fill-rule="evenodd"/>
</svg>
