<svg xmlns="http://www.w3.org/2000/svg" width="48.182" height="45.757" viewBox="0 0 48.182 45.757">
  <path id="ic-phone-outlined" d="M34.32,30.527l-1.278-1.286h0Zm1.1-1.095L36.7,30.718h0Zm5.843-.766L40.4,30.259Zm4.619,2.511-.866,1.593Zm1.3,7.87,1.278,1.286ZM43.75,42.462l-1.279-1.286Zm-3.2,1.619.168,1.806h0ZM16.706,33.834l1.279-1.286ZM5.07,12.12l-1.81.1h0Zm15.654,3.51L22,16.916h0ZM21.1,9.213l1.452-1.087ZM18.054,5.141,16.6,6.228h0Zm-7.524-.687L11.809,5.74h0ZM6.736,8.227,5.458,6.941h0Zm17.822,17.8,1.278-1.286ZM35.6,31.813l1.1-1.095-2.557-2.572-1.1,1.095Zm4.8-1.554,4.619,2.511,1.732-3.186L42.13,27.073Zm5.508,7.5-3.435,3.415,2.557,2.572,3.435-3.415Zm-5.527,4.515c-3.505.327-12.575.036-22.394-9.728l-2.557,2.572C26.143,45.774,36.341,46.294,40.715,45.887ZM17.984,32.548c-9.36-9.307-10.91-17.135-11.1-20.531l-3.621.206C3.5,16.5,5.423,25.172,15.427,35.119Zm3.325-14.942.693-.69-2.557-2.572-.693.689Zm1.245-9.478L19.506,4.054,16.6,6.228,19.651,10.3ZM9.252,3.168,5.458,6.941,8.015,9.513,11.809,5.74ZM20.031,16.319c-1.279-1.286-1.28-1.284-1.282-1.282l0,0-.007.007-.015.016-.033.035c-.023.025-.049.054-.076.087a2.978,2.978,0,0,0-.182.242,3.692,3.692,0,0,0-.394.77,5.074,5.074,0,0,0-.213,2.589c.325,2.092,1.765,4.855,5.456,8.525l2.557-2.572c-3.454-3.434-4.276-5.524-4.429-6.509a1.514,1.514,0,0,1,.023-.754c.013-.034.019-.037,0-.014s-.021.029-.041.053l-.036.04-.022.024-.012.013-.007.007,0,0S21.309,17.605,20.031,16.319Zm3.248,10.992c3.692,3.671,6.468,5.1,8.564,5.421a5.129,5.129,0,0,0,2.589-.211,3.715,3.715,0,0,0,.77-.39,2.956,2.956,0,0,0,.243-.181c.033-.027.062-.052.087-.076l.036-.033.016-.015.007-.007,0,0s0,0-1.275-1.289-1.277-1.287-1.275-1.289l0,0,.007-.007.013-.012.024-.022.041-.035c.024-.02.041-.032.052-.04s.018-.008-.018.005a1.571,1.571,0,0,1-.773.024c-1-.153-3.1-.975-6.557-4.408ZM19.506,4.054A6.831,6.831,0,0,0,9.252,3.168L11.809,5.74a3.206,3.206,0,0,1,4.793.488ZM6.881,12.017a3.323,3.323,0,0,1,1.134-2.5L5.458,6.941a6.925,6.925,0,0,0-2.2,5.281ZM42.471,41.176a3.474,3.474,0,0,1-2.093,1.1l.337,3.611a7.078,7.078,0,0,0,4.313-2.139ZM22,16.916a6.7,6.7,0,0,0,.552-8.789l-2.9,2.173a3.079,3.079,0,0,1-.206,4.044ZM45.017,32.77a3.168,3.168,0,0,1,.889,4.991l2.557,2.572a6.792,6.792,0,0,0-1.714-10.749ZM36.7,30.718a3.118,3.118,0,0,1,3.7-.459l1.732-3.186a6.743,6.743,0,0,0-7.987,1.073Z" transform="translate(-2.732 -0.745)" fill="#fff" stroke="#fff" stroke-width="1"/>
</svg>
