<svg xmlns="http://www.w3.org/2000/svg" width="52.594" height="51.371" viewBox="0 0 52.594 51.371">
  <path id="ic-whatsapp-outlined" d="M7.116,27.185A20.785,20.785,0,1,1,16.8,44.764a2.447,2.447,0,0,0-2.009-.278l-7.043,2.1L10.4,40.384a2.446,2.446,0,0,0-.171-2.251A20.685,20.685,0,0,1,7.116,27.185ZM27.909,1.5A25.693,25.693,0,0,0,5.415,39.594L1.2,49.463a2.446,2.446,0,0,0,2.949,3.305l11.007-3.285A25.687,25.687,0,1,0,27.909,1.5Zm5.608,31.024L30.3,34.789a22.843,22.843,0,0,1-4.84-3.725,24.955,24.955,0,0,1-3.972-5.172l2.043-1.734a2.446,2.446,0,0,0,.577-3.014l-2.6-4.892a2.446,2.446,0,0,0-3.768-.694l-.772.674a6.51,6.51,0,0,0-2.044,6.977A29.474,29.474,0,0,0,22,34.523,25.583,25.583,0,0,0,33.58,41.386a6.3,6.3,0,0,0,5.549-1.34l1.447-1.179a2.446,2.446,0,0,0-.293-4l-4.106-2.446A2.447,2.447,0,0,0,33.517,32.524Z" transform="translate(-1 -1.5)" fill="#fff" fill-rule="evenodd"/>
</svg>
