<svg xmlns="http://www.w3.org/2000/svg" xmlns:xlink="http://www.w3.org/1999/xlink" width="1920" height="1080" viewBox="0 0 1920 1080">
  <defs>
    <clipPath id="clip-path">
      <rect id="Rectangle_156" data-name="Rectangle 156" width="1920" height="1080" fill="none" stroke="#707070" stroke-width="1"/>
    </clipPath>
    <radialGradient id="radial-gradient" cx="0.5" cy="0.5" r="0.56" gradientUnits="objectBoundingBox">
      <stop offset="0" stop-color="#3671ea"/>
      <stop offset="0.674" stop-color="#a3bef6" stop-opacity="0.741"/>
      <stop offset="0.794" stop-color="#aac3f6" stop-opacity="0.18"/>
      <stop offset="1" stop-color="#fff" stop-opacity="0"/>
      <stop offset="1" stop-color="gray" stop-opacity="0.62"/>
    </radialGradient>
    <filter id="Path_1" x="894.803" y="52.885" width="686.393" height="494.615" filterUnits="userSpaceOnUse">
      <feOffset dy="3" input="SourceAlpha"/>
      <feGaussianBlur stdDeviation="34.5" result="blur"/>
      <feFlood flood-color="#3671ea" flood-opacity="0.329"/>
      <feComposite operator="in" in2="blur"/>
    </filter>
  </defs>
  <g id="hero-bg-material-01" clip-path="url(#clip-path)">
    <path id="Path_118" data-name="Path 118" d="M421.5,0C654.288,0,843,210.874,843,471S654.288,942,421.5,942,0,731.126,0,471,188.712,0,421.5,0Z" transform="translate(-439 153)" opacity="0.48" fill="url(#radial-gradient)"/>
    <ellipse id="Ellipse_88" data-name="Ellipse 88" cx="421.5" cy="471" rx="421.5" ry="471" transform="matrix(0.891, -0.454, 0.454, 0.891, 1315.111, 111.693)" opacity="0.48" fill="url(#radial-gradient)"/>
    <g transform="matrix(1, 0, 0, 1, 0, 0)" filter="url(#Path_1)">
      <path id="Path_1-2" data-name="Path 1" d="M-26.32,28.136C24.211-5.389,110.331,68.088,205.309,56.582S333.822-82.091,391.221-71.424,434.9,99.25,434.9,99.25,401.623,201.1,307.916,213.033,3.184,190.683,3.184,190.683s-6.638-10.7-14.951-26.87C-32.086,124.287-62.3,52.006-26.32,28.136Z" transform="translate(1041.36 225.44)" fill="#fff"/>
    </g>
  </g>
</svg>
