<svg id="ic-equipments" xmlns="http://www.w3.org/2000/svg" width="64.241" height="42.37" viewBox="0 0 64.241 42.37">
  <path id="Path_13" data-name="Path 13" d="M131.888,45.439H94.1A2.166,2.166,0,0,0,91.939,47.6V63.262A2.166,2.166,0,0,0,94.1,65.428h37.783a2.166,2.166,0,0,0,2.166-2.166V47.6A2.166,2.166,0,0,0,131.888,45.439ZM129.722,61.1H96.271V49.771h33.451Z" transform="translate(-69.813 -45.439)" fill="#3f9cc5"/>
  <path id="Path_14" data-name="Path 14" d="M17.823,45.439H2.166A2.166,2.166,0,0,0,0,47.6V85.643a2.166,2.166,0,0,0,2.166,2.166H17.823a2.166,2.166,0,0,0,2.166-2.166V47.6A2.166,2.166,0,0,0,17.823,45.439ZM15.657,83.478H4.332V49.771H15.657Z" transform="translate(0 -45.439)" fill="#3f9cc5"/>
  <path id="Path_15" data-name="Path 15" d="M109.762,138.439H94.1a2.166,2.166,0,0,0-2.166,2.166v15.657a2.166,2.166,0,0,0,2.166,2.166h15.657a2.166,2.166,0,0,0,2.166-2.166V140.6A2.166,2.166,0,0,0,109.762,138.439ZM107.6,154.1H96.271V142.771H107.6Z" transform="translate(-69.813 -116.058)" fill="#3f9cc5"/>
  <path id="Path_16" data-name="Path 16" d="M201.7,138.439H186.045a2.166,2.166,0,0,0-2.166,2.166v15.657a2.166,2.166,0,0,0,2.166,2.166H201.7a2.166,2.166,0,0,0,2.166-2.166V140.6A2.166,2.166,0,0,0,201.7,138.439ZM199.536,154.1H188.211V142.771h11.325Z" transform="translate(-139.627 -116.058)" fill="#3f9cc5"/>
</svg>
