<svg xmlns="http://www.w3.org/2000/svg" width="30.994" height="42.991" viewBox="0 0 30.994 42.991">
  <g id="ic-remote" transform="translate(-4.25 -1.25)">
    <path id="Path_87" data-name="Path 87" d="M19.664,1.25h.166c2.738,0,4.907,0,6.64.176a9.651,9.651,0,0,1,4.553,1.425,9.5,9.5,0,0,1,2.62,2.621,9.651,9.651,0,0,1,1.425,4.553c.176,1.732.176,3.9.176,6.64V28.828c0,2.738,0,4.907-.176,6.64a9.652,9.652,0,0,1-1.425,4.553,9.5,9.5,0,0,1-2.62,2.62,9.652,9.652,0,0,1-4.553,1.425c-1.732.176-3.9.176-6.64.176h-.166c-2.738,0-4.907,0-6.64-.176a9.651,9.651,0,0,1-4.553-1.425,9.5,9.5,0,0,1-2.621-2.62,9.651,9.651,0,0,1-1.425-4.553c-.176-1.732-.176-3.9-.176-6.64V16.664c0-2.738,0-4.907.176-6.64A9.65,9.65,0,0,1,5.851,5.471,9.5,9.5,0,0,1,8.471,2.851a9.651,9.651,0,0,1,4.553-1.425C14.756,1.25,16.926,1.25,19.664,1.25ZM13.328,4.41a6.738,6.738,0,0,0-3.19.934A6.5,6.5,0,0,0,8.345,7.138a6.738,6.738,0,0,0-.934,3.19c-.159,1.563-.161,3.58-.161,6.419v12c0,2.84,0,4.856.161,6.419a6.738,6.738,0,0,0,.934,3.19,6.5,6.5,0,0,0,1.793,1.793,6.737,6.737,0,0,0,3.19.934c1.563.159,3.58.161,6.419.161s4.856,0,6.419-.161a6.737,6.737,0,0,0,3.19-.934,6.5,6.5,0,0,0,1.793-1.793,6.737,6.737,0,0,0,.934-3.19c.159-1.563.161-3.579.161-6.419v-12c0-2.84,0-4.856-.161-6.419a6.737,6.737,0,0,0-.934-3.19,6.5,6.5,0,0,0-1.793-1.793,6.738,6.738,0,0,0-3.19-.934c-1.563-.159-3.579-.161-6.419-.161S14.89,4.251,13.328,4.41ZM12.248,9.748a1.5,1.5,0,0,1,1.5-1.5h12a1.5,1.5,0,0,1,0,3h-12A1.5,1.5,0,0,1,12.248,9.748Zm7.5,15.5a4.5,4.5,0,1,0,4.5,4.5A4.5,4.5,0,0,0,19.747,25.245Zm-7.5,4.5a7.5,7.5,0,1,1,7.5,7.5A7.5,7.5,0,0,1,12.248,29.744Z" transform="translate(0)" fill="#143892" fill-rule="evenodd"/>
    <path id="Path_88" data-name="Path 88" d="M12,10a2,2,0,1,1-2-2A2,2,0,0,1,12,10Z" transform="translate(3.748 6.747)" fill="#143892"/>
    <path id="Path_89" data-name="Path 89" d="M15,10a2,2,0,1,1-2-2A2,2,0,0,1,15,10Z" transform="translate(6.747 6.747)" fill="#143892"/>
    <path id="Path_90" data-name="Path 90" d="M18,10a2,2,0,1,1-2-2A2,2,0,0,1,18,10Z" transform="translate(9.746 6.747)" fill="#143892"/>
  </g>
</svg>
