<svg xmlns="http://www.w3.org/2000/svg" width="35.748" height="35.747" viewBox="0 0 35.748 35.747">
  <g id="ic-scale" transform="translate(-0.25 0.475)">
    <path id="Path_91" data-name="Path 91" d="M16.186,2c-6.391.012-9.738.168-11.877,2.307C2,6.616,2,10.331,2,17.761S2,28.906,4.308,31.214s6.023,2.308,13.453,2.308,11.145,0,13.453-2.308c2.139-2.139,2.3-5.486,2.307-11.877" transform="translate(0 0)" fill="none" stroke="#143892" stroke-linecap="round" stroke-width="3.5"/>
    <path id="Path_92" data-name="Path 92" d="M13.576,16.186,27.762,2m0,0H19.339m8.423,0v8.423M26.186,3.576,12,17.762m0,0h6.3m-6.3,0v-6.3" transform="translate(5.762 0)" fill="none" stroke="#143892" stroke-linecap="round" stroke-linejoin="round" stroke-width="3.5"/>
  </g>
</svg>
