<svg xmlns="http://www.w3.org/2000/svg" width="74.409" height="52.982" viewBox="0 0 74.409 52.982">
  <path id="ic-camera" d="M67.595,52.482V46.171H51.026a.786.786,0,0,1-.218-.031,4.754,4.754,0,0,1-7.062-6.211.792.792,0,0,1-.086-.132l-4.723-9.156L18.6,37.224a.792.792,0,0,1-.112.027.79.79,0,0,1-.117.048,4.068,4.068,0,0,1-1.264.2,5.8,5.8,0,0,1-3.7-1.554,12.163,12.163,0,0,1-3.489-5.5,10.543,10.543,0,0,1-.192-6.354,6.732,6.732,0,0,1,.918-1.863l-7.886.989a.79.79,0,0,1-.849-.54L.038,16.9a.787.787,0,0,1,.508-.993L49.592.038A.812.812,0,0,1,49.836,0a.788.788,0,0,1,.75.545L54.306,12.04c.006.014.011.029.016.044l3.735,11.539a.79.79,0,0,1-.507.994L47.331,27.924,48.914,37.9a4.773,4.773,0,0,1,2.775,1.961H67.595v-7.89h6.311V52.482ZM69.173,50.9h3.156V33.547H69.173Zm-24.61-8.4a3.178,3.178,0,1,0,6.146-1.137.791.791,0,0,1-.465-.82,3.177,3.177,0,0,0-5.681,1.957Zm23.032,2.085V41.437H52.376a4.759,4.759,0,0,1-.36,3.156ZM40.751,30.712l4,7.754,2.517-.875-1.373-8.664ZM11.229,24.567a8.954,8.954,0,0,0,.189,5.388c1.162,3.587,3.769,6.14,5.927,5.952L12.9,22.18A4.326,4.326,0,0,0,11.229,24.567ZM18.867,35.48,56.313,23.359,53.064,13.321l-18,5.827a.824.824,0,0,1-.145.033l-1.729.217L14.424,21.752ZM1.784,17.17l1.424,4.4,10.021-1.257.051-.008,19.534-2.449,1.832-.23,17.931-5.806L49.327,1.782Z" transform="translate(0.253 0.25)" fill="#46c7ff" stroke="#46c7ff" stroke-linecap="round" stroke-width="0.5"/>
</svg>
