<svg xmlns="http://www.w3.org/2000/svg" width="60.309" height="58.505" viewBox="0 0 60.309 58.505">
  <g id="ic-install" transform="translate(-46.933 -50.034)">
    <path id="Path_63" data-name="Path 63" d="M-10950.83-5762.989l-1.129-6.792a16.518,16.518,0,0,1-4.576-1.889l-5.634,3.946-4.063-4.07,3.986-5.578a16.674,16.674,0,0,1-1.908-4.6l-6.748-1.195v-5.751l6.757-1.124a16.7,16.7,0,0,1,1.908-4.593l-3.935-5.63,4.066-4.064,5.592,4a16.512,16.512,0,0,1,4.576-1.881l1.107-6.792h5.748l1.2,6.812a16.434,16.434,0,0,1,4.563,1.9l5.611-4.037,4.063,4.064-3.989,5.688a16.668,16.668,0,0,1,1.883,4.54l6.84,1.118v5.754l-6.842,1.2a16.547,16.547,0,0,1-1.878,4.548l4.05,5.625-4.063,4.069-5.672-3.987a16.649,16.649,0,0,1-4.555,1.911l-1.206,6.809Zm-5.1-23.007a8.019,8.019,0,0,0,8.018,8.023,8.015,8.015,0,0,0,8.015-8.023,8.016,8.016,0,0,0-8.015-8.018A8.018,8.018,0,0,0-10955.927-5786Z" transform="translate(11025 5860.036)" fill="none" stroke="#47c7ff" stroke-width="2"/>
    <path id="Path_62" data-name="Path 62" d="M11027.257,5903.1v10.85s-.966,4.581,6.026,4.581h45.809s5.545.241,5.786-4.581,0-10.85,0-10.85" transform="translate(-10979.007 -5811.246)" fill="none" stroke="#47c7ff" stroke-width="2.5"/>
  </g>
</svg>
