<svg xmlns="http://www.w3.org/2000/svg" width="67.002" height="58.58" viewBox="0 0 67.002 58.58">
  <path id="ic-node" d="M3929.79-188.42a2,2,0,0,1-2-2v-16.212a2,2,0,0,1,2-2h8.189l-14.157-15.731a1.994,1.994,0,0,1-1.4.572H3906.21a1.992,1.992,0,0,1-1.385-.558l-12.572,15.717h9.958a2,2,0,0,1,2,2v16.212a2,2,0,0,1-2,2H3886a2,2,0,0,1-2-2v-16.212a2,2,0,0,1,2-2h6.253l12.572-15.717a1.994,1.994,0,0,1-.614-1.441V-242a2,2,0,0,1,2-2h16.211a2,2,0,0,1,2,2v16.212a1.993,1.993,0,0,1-.6,1.427l14.157,15.731H3946a2,2,0,0,1,2,2v16.212a2,2,0,0,1-2,2Z" transform="translate(-3882.5 245.5)" fill="none" stroke="#47c7ff" stroke-width="3"/>
</svg>
