<svg xmlns="http://www.w3.org/2000/svg" width="66.57" height="63.248" viewBox="0 0 66.57 63.248">
  <g id="ic-server" transform="translate(-1 -2)">
    <path id="Path_58" data-name="Path 58" d="M2,23.953c0-2.781,0-4.172.492-5.269a6.235,6.235,0,0,1,3.495-3.23C7.173,15,8.677,15,11.686,15h45.2c3.009,0,4.513,0,5.7.454a6.236,6.236,0,0,1,3.495,3.23c.491,1.1.491,2.487.491,5.269s0,4.172-.491,5.269a6.236,6.236,0,0,1-3.495,3.23c-1.187.454-2.691.454-5.7.454h-45.2c-3.009,0-4.513,0-5.7-.454a6.235,6.235,0,0,1-3.495-3.23C2,28.125,2,26.734,2,23.953Z" transform="translate(0 31.342)" fill="none" stroke="#47c7ff" stroke-width="2"/>
    <path id="Path_59" data-name="Path 59" d="M2,17.953c0-2.781,0-4.172.492-5.269a6.234,6.234,0,0,1,3.495-3.23C7.173,9,8.677,9,11.686,9h45.2c3.009,0,4.513,0,5.7.454a6.235,6.235,0,0,1,3.495,3.23c.491,1.1.491,2.487.491,5.269s0,4.172-.491,5.269a6.236,6.236,0,0,1-3.495,3.23c-1.187.454-2.691.454-5.7.454h-45.2c-3.009,0-4.513,0-5.7-.454a6.235,6.235,0,0,1-3.495-3.23C2,22.125,2,20.734,2,17.953Z" transform="translate(0 15.671)" fill="none" stroke="#47c7ff" stroke-width="2"/>
    <path id="Path_60" data-name="Path 60" d="M2,11.953c0-2.781,0-4.172.492-5.269a6.234,6.234,0,0,1,3.495-3.23C7.173,3,8.677,3,11.686,3h45.2c3.009,0,4.513,0,5.7.454a6.235,6.235,0,0,1,3.495,3.23c.491,1.1.491,2.487.491,5.269s0,4.172-.491,5.269a6.235,6.235,0,0,1-3.495,3.23c-1.187.454-2.691.454-5.7.454h-45.2c-3.009,0-4.513,0-5.7-.454a6.234,6.234,0,0,1-3.495-3.23C2,16.125,2,14.734,2,11.953Z" transform="translate(0 0)" fill="none" stroke="#47c7ff" stroke-width="2"/>
    <circle id="Ellipse_24" data-name="Ellipse 24" cx="3" cy="3" r="3" transform="translate(8 30.787)" fill="#46c7ff"/>
    <circle id="Ellipse_25" data-name="Ellipse 25" cx="3" cy="3" r="3" transform="translate(8 9)" fill="#46c7ff"/>
    <circle id="Ellipse_26" data-name="Ellipse 26" cx="3" cy="3" r="3" transform="translate(8 52.529)" fill="#46c7ff"/>
  </g>
</svg>
