<svg xmlns="http://www.w3.org/2000/svg" width="68.271" height="66.157" viewBox="0 0 68.271 66.157">
  <g id="ic-ship" transform="translate(-148.201 -2045.093)">
    <path id="Path_104" data-name="Path 104" d="M10308.912,4952.194v15.692s.25,5.6,8.221,5.355,45.21,0,45.21,0,3.113-10.586,7.722-11.333,2.74-9.714,2.74-9.714Z" transform="translate(-10158.711 -2864)" fill="none" stroke="#47c7ff" stroke-linecap="round" stroke-linejoin="round" stroke-width="4"/>
    <path id="Path_105" data-name="Path 105" d="M10311.777,4952.194v-31.635h11.707v31.635" transform="translate(-10158.711 -2864)" fill="none" stroke="#47c7ff" stroke-linecap="round" stroke-linejoin="round" stroke-width="4"/>
    <path id="Path_106" data-name="Path 106" d="M10317.631,4920.559v-9.466" transform="translate(-10158.711 -2864)" fill="none" stroke="#47c7ff" stroke-linecap="round" stroke-width="4"/>
    <path id="Path_107" data-name="Path 107" d="M10337.807,4952.194v-8.843h11.832v8.843" transform="translate(-10158.711 -2864)" fill="none" stroke="#47c7ff" stroke-linecap="round" stroke-linejoin="round" stroke-width="4"/>
    <path id="Path_108" data-name="Path 108" d="M10343.723,4933.512v-13.2l19.118,20.674" transform="translate(-10158.711 -2864)" fill="none" stroke="#47c7ff" stroke-linecap="round" stroke-linejoin="round" stroke-width="4"/>
    <path id="Path_109" data-name="Path 109" d="M10357.734,4952.194s.717-5.816,2.024-8.681,5.621-2.865,7.427,0,3,8.681,3,8.681" transform="translate(-10158.711 -2864)" fill="none" stroke="#47c7ff" stroke-linecap="round" stroke-linejoin="round" stroke-width="4"/>
  </g>
</svg>
