<svg xmlns="http://www.w3.org/2000/svg" width="45" height="45" viewBox="0 0 45 45">
  <g id="ic-globe" transform="translate(0.5 0.5)">
    <path id="Path_29" data-name="Path 29" d="M22,0A22,22,0,1,0,44,22,22,22,0,0,0,22,0ZM19.126,4.41l.121-.141a2.346,2.346,0,0,0,.706-1.444,1.955,1.955,0,0,0-.375-1.3,20.34,20.34,0,0,1,5.387.069,1.935,1.935,0,0,0,.8.617,2.271,2.271,0,0,0,1.493.171,1.274,1.274,0,0,0,.437-.2c.425.122.845.254,1.259.4a1.33,1.33,0,0,0,1.1,1,1.782,1.782,0,0,0,.982-.126A20.649,20.649,0,0,1,42.306,18.4a1.511,1.511,0,0,0-.133.619.427.427,0,0,0,.006.094c-.025.038-.056.058-.21.132a2.027,2.027,0,0,0-.635.432,2.314,2.314,0,0,0-.459.722,1.009,1.009,0,0,1-.188.323.759.759,0,0,1-.289.118,1.576,1.576,0,0,0-1.013.679,1.828,1.828,0,0,0-.237,1.16c0,.034,0,.069.006.105a1.434,1.434,0,0,1-.185.075,1.122,1.122,0,0,0-.149-.826.934.934,0,0,0-.793-.461,1.138,1.138,0,0,0-.782.365,3.9,3.9,0,0,0-.058-.869,1.28,1.28,0,0,1,.09-.732l.038-.131a1.4,1.4,0,0,1,.279-.48,2.523,2.523,0,0,0,.52-1,3.375,3.375,0,0,0,.051-1.234c-.013-.127-.026-.261-.032-.416l-.013-.364a7.466,7.466,0,0,0-.13-1.336l-.047-.24a3.936,3.936,0,0,0-.584-1.6,2.978,2.978,0,0,0-1.171-1.15,2.335,2.335,0,0,0-.424-.181,3.306,3.306,0,0,0-.657-.132l-.214-.029a2.663,2.663,0,0,0-.939.06c-.2.04-.322.072-.42.018a.84.84,0,0,1-.267-.264c-.065-.082-.133-.168-.223-.267a2.313,2.313,0,0,1-.212-.274,2.918,2.918,0,0,0-1.4-1.106,2.845,2.845,0,0,0-1.9.138,3,3,0,0,0-.982.59c-.108.089-.222.184-.333.259s-.206.107-.3.151a2.756,2.756,0,0,0-.737.459,5.2,5.2,0,0,1-.983.624.76.76,0,0,1-.253-.081,1.92,1.92,0,0,0-.612-.177l-.149-.009c-.046,0-.094,0-.129.006a1.912,1.912,0,0,0-.693.2,1.132,1.132,0,0,1-.209.082,2.688,2.688,0,0,1-.775.041,3.854,3.854,0,0,0-1.242.1,2.39,2.39,0,0,0-.716.36c-.181.122-.224.144-.293.144s-.119-.029-.311-.18a2.29,2.29,0,0,0-.835-.462,4.455,4.455,0,0,0-.683-.124l-.19-.023c-.361-.052-.619-.074-.911-.1-.135-.011-.278-.022-.446-.038l-.194,0-.032.012-.079,0-.008,0a5.381,5.381,0,0,0-.782-.473,6.313,6.313,0,0,0-.666-.292,3.206,3.206,0,0,0-.111-.793c-.016-.05-.032-.094-.054-.149.008-.032.021-.085.048-.165a1.908,1.908,0,0,1,.289-.53l.1-.069a2.134,2.134,0,0,0,.451-.363,2.438,2.438,0,0,0,.719-1.62,1.734,1.734,0,0,0-.511-1.261c-.063-.075-.161-.192-.175-.208.03-.116.081-.166.368-.357a4.334,4.334,0,0,0,.476-.351,3.176,3.176,0,0,1,.545-.362A3.248,3.248,0,0,0,19.126,4.41ZM3.029,30.1A20.5,20.5,0,0,1,1.5,24.251a5.74,5.74,0,0,1,.65-.961,2.91,2.91,0,0,1,.653-.547,3.982,3.982,0,0,0,.951-.83,3.244,3.244,0,0,0,.608-1.361c.109-.428.17-.641.4-.8a1.866,1.866,0,0,1,1.02-.282c.163-.014.335-.032.526-.058l.253-.037a4.794,4.794,0,0,1,2.2.019,3.377,3.377,0,0,1,1.206.673,8.28,8.28,0,0,0,.925.631,7.49,7.49,0,0,1,.773.525,4.1,4.1,0,0,0,1.989.934,2.565,2.565,0,0,0,1.3-.215,1.519,1.519,0,0,1,.423-.124.187.187,0,0,1,.1.028c.45.25.551.458.569.6-.1.027-.236.051-.338.069-.483.085-1.383.242-1.486,1.168a1.079,1.079,0,0,0,.241.882c.36.406,1.032.363,1.789.192a4.675,4.675,0,0,1,.934-.151.725.725,0,0,1,.229.028,5.692,5.692,0,0,0,.624.175c.092.021.215.05.321.079l-.225.041a3.793,3.793,0,0,0-1,.272c-.258.12-.479.234-.686.342a5.84,5.84,0,0,1-1.265.53,1.747,1.747,0,0,1-.639-.036,3.593,3.593,0,0,0-.614-.068,1.373,1.373,0,0,0-1.185.595,2.242,2.242,0,0,0-.077,2.265,2.145,2.145,0,0,0,2.191,1.331,7.151,7.151,0,0,0,2.334-.49,3.228,3.228,0,0,0,1.348-.991,2.272,2.272,0,0,1,.763-.631l.35-.159c.721-.332,1.248-.569,1.814-.3.152.072.218.208.356.549a2.213,2.213,0,0,0,.993,1.268,2.436,2.436,0,0,0,1.763.043c.305-.087.55-.162.727-.058s.263.261.4.562a3.229,3.229,0,0,0,.586.921c.091.1.176.188.258.278a3.539,3.539,0,0,0,1.92,1.293,1.81,1.81,0,0,0,.411.047,2.586,2.586,0,0,0,1.179-.347c.267-.132.472-.231.64-.179.7.23.848.387.914.668.058.225-.18.414-1.061.839-.14.068-.28.135-.413.2a3.2,3.2,0,0,1-1.365.32c-.215.018-.443.038-.69.072a12.458,12.458,0,0,0-1.385.275,6.346,6.346,0,0,1-1.391.234,1.622,1.622,0,0,1-1.062-.364,2.141,2.141,0,0,1-.55-.738,5.722,5.722,0,0,0-.476-.762,5.029,5.029,0,0,1-.516-.927c-.352-.745-.79-1.671-1.786-1.671a1.64,1.64,0,0,0-.525.091,2.025,2.025,0,0,0-1.22,1.333,2.989,2.989,0,0,1-.261.529,4.1,4.1,0,0,0-.5,1.1c-.193.578-.254.646-.408.669-.248.036-.4-.069-.773-.336-.11-.08-.224-.163-.345-.243a2.36,2.36,0,0,1-.556-.556,3.865,3.865,0,0,0-.793-.8,4.477,4.477,0,0,0-1.108-.576,3.626,3.626,0,0,1-.744-.36,1.379,1.379,0,0,1-.278-.3,1.579,1.579,0,0,0-1.228-.736h-.069a1.885,1.885,0,0,0-1.7,1.029,5.834,5.834,0,0,0-.436,1.164c-.216.718-.512,1.7-.976,1.7H9A9.87,9.87,0,0,1,6.425,31.97a13.935,13.935,0,0,0-1.211-.995l-.228-.157a3.066,3.066,0,0,0-1.761-.733A1.931,1.931,0,0,0,3.029,30.1ZM22,42.625A20.617,20.617,0,0,1,3.782,31.669c.132.08.27.173.418.276l.249.171c.231.153.638.509,1.069.886,1.43,1.251,2.509,2.142,3.389,2.2,1.554.1,2.053-1.582,2.383-2.676a5.339,5.339,0,0,1,.31-.874.541.541,0,0,1,.531-.342,1.283,1.283,0,0,1,.19.215,2.548,2.548,0,0,0,.6.589,4.923,4.923,0,0,0,1.005.5,3.138,3.138,0,0,1,.8.408,2.608,2.608,0,0,1,.53.543,3.675,3.675,0,0,0,.87.843c.106.07.2.141.3.209a2.273,2.273,0,0,0,1.774.586c1.035-.149,1.325-1.018,1.518-1.594a2.993,2.993,0,0,1,.331-.758,4.08,4.08,0,0,0,.4-.782c.177-.424.235-.507.39-.559a.215.215,0,0,1,.092-.019c.14.044.4.591.537.884a6.084,6.084,0,0,0,.672,1.182,4.528,4.528,0,0,1,.358.579,3.432,3.432,0,0,0,.9,1.157,3,3,0,0,0,1.917.661,7.307,7.307,0,0,0,1.711-.272,11.229,11.229,0,0,1,1.243-.249c.228-.031.434-.048.628-.065a4.479,4.479,0,0,0,1.88-.469c.122-.063.25-.125.379-.187.856-.414,2.15-1.039,1.8-2.406a2.375,2.375,0,0,0-1.827-1.647,1.748,1.748,0,0,0-.529-.083,2.523,2.523,0,0,0-1.145.339,1.13,1.13,0,0,1-.664.192,2.294,2.294,0,0,1-1.218-.882c-.087-.1-.179-.195-.276-.3a1.993,1.993,0,0,1-.338-.558A2.359,2.359,0,0,0,26,28.207a2.357,2.357,0,0,0-1.812-.08c-.3.087-.548.164-.735.064-.157-.082-.228-.228-.364-.567a2.115,2.115,0,0,0-1.045-1.278,2.546,2.546,0,0,0-1.1-.254,4.432,4.432,0,0,0-1.876.552l-.332.152a3.575,3.575,0,0,0-1.22.96,1.919,1.919,0,0,1-.789.62,5.967,5.967,0,0,1-1.876.413c-.638,0-.822-.241-.917-.474-.232-.573-.21-.762-.012-.966a2.389,2.389,0,0,1,.383.048,3.069,3.069,0,0,0,1.225.009,7.06,7.06,0,0,0,1.543-.639c.191-.1.394-.2.637-.318a2.831,2.831,0,0,1,.651-.161c.534-.092,1.647-.283,1.566-1.433-.083-1.028-1.02-1.248-1.581-1.38a4.168,4.168,0,0,1-.474-.129,2.017,2.017,0,0,0-.649-.109,1.157,1.157,0,0,0,.189-.564,2.1,2.1,0,0,0-1.275-2.025,1.567,1.567,0,0,0-.764-.2,2.494,2.494,0,0,0-.912.214,1.375,1.375,0,0,1-.611.14,2.817,2.817,0,0,1-1.364-.677,8.954,8.954,0,0,0-.911-.616,6.889,6.889,0,0,1-.777-.532,4.652,4.652,0,0,0-1.664-.9,6.224,6.224,0,0,0-2.778-.055l-.247.036c-.164.023-.315.037-.458.05a3.174,3.174,0,0,0-1.673.518,2.448,2.448,0,0,0-.951,1.594,2.027,2.027,0,0,1-.344.834,2.7,2.7,0,0,1-.657.558,5.137,5.137,0,0,0-.651.5c0-.041,0-.077,0-.115A20.629,20.629,0,0,1,18.07,1.754c.076.118.155.233.23.337.239.33.3.435.283.629-.017.228-.1.337-.375.649l-.135.158a1.982,1.982,0,0,1-.617.465,4.5,4.5,0,0,0-.764.518,2.994,2.994,0,0,1-.335.243,1.927,1.927,0,0,0-.943,1.169,1.553,1.553,0,0,0,.451,1.422,1.118,1.118,0,0,1,.2.283,1.073,1.073,0,0,1-.353.784.855.855,0,0,1-.19.146c-.078.05-.16.1-.25.173l-.083.076a3.158,3.158,0,0,0-.617,1.066,1.392,1.392,0,0,0-.03,1.1l.03.081a3.243,3.243,0,0,1,.05.565l-.058.837.56.14a3.89,3.89,0,0,1,.93.353,4.025,4.025,0,0,1,.6.366l.2.137a1.246,1.246,0,0,0,.834.1c.145.014.273.024.395.034.265.021.5.04.831.088l.216.027a3.206,3.206,0,0,1,.487.085,1.062,1.062,0,0,1,.345.215,1.666,1.666,0,0,0,2.227.093,1.1,1.1,0,0,1,.32-.174,2.484,2.484,0,0,1,.791-.051,4.017,4.017,0,0,0,1.185-.079,2.43,2.43,0,0,0,.448-.166,1.511,1.511,0,0,1,.175-.075h.049l.036,0a.851.851,0,0,1,.206.071,2.008,2.008,0,0,0,.782.193,4.317,4.317,0,0,0,1.905-.967,1.517,1.517,0,0,1,.412-.245c.125-.058.256-.121.437-.226A5.667,5.667,0,0,0,29.416,12a1.717,1.717,0,0,1,.564-.355,1.412,1.412,0,0,1,1-.133,1.281,1.281,0,0,1,.458.285,1.319,1.319,0,0,1,.261.306,3.531,3.531,0,0,0,.327.416c.06.067.109.129.156.189a2.161,2.161,0,0,0,.685.618,2.058,2.058,0,0,0,1.36.123,1.293,1.293,0,0,1,.459-.046l.243.033a2.173,2.173,0,0,1,.406.076,1.038,1.038,0,0,1,.2.083,1.678,1.678,0,0,1,.679.7,2.654,2.654,0,0,1,.381,1.1l.049.245a6,6,0,0,1,.1,1.108l.014.379c.008.182.022.342.037.492a2.1,2.1,0,0,1-.019.782,1.25,1.25,0,0,1-.276.487,2.632,2.632,0,0,0-.509.941l-.034.117a2.563,2.563,0,0,0-.11,1.425,5.4,5.4,0,0,1,.02.807c-.013.778-.021,1.292.305,1.624a.776.776,0,0,0,.558.235l.213-.014.14-.067a1.967,1.967,0,0,0,.518-.376l.015.036a1.15,1.15,0,0,0,1.11.665c.567,0,1.713-.4,1.792-1.145a3.462,3.462,0,0,0,0-.54c-.014-.241-.01-.288.036-.362a1.125,1.125,0,0,1,.219-.076,1.914,1.914,0,0,0,.872-.457,2.255,2.255,0,0,0,.481-.742,1.044,1.044,0,0,1,.2-.333.785.785,0,0,1,.239-.145c.034.5.059,1,.059,1.515A20.625,20.625,0,0,1,22,42.625Z" fill="#fff" stroke="#fff" stroke-width="1"/>
    <path id="Path_30" data-name="Path 30" d="M42.327,28.112A1.937,1.937,0,0,0,41.1,29.33a1.748,1.748,0,0,1-.352.563,3.557,3.557,0,0,1-.833.551,4.8,4.8,0,0,0-1.109.748,4.529,4.529,0,0,1-.454.351A1.843,1.843,0,0,0,37.3,33.471,1.275,1.275,0,0,0,38.624,34.5a4.864,4.864,0,0,0,1.413-.31c.234-.075.465-.151.676-.2A5.2,5.2,0,0,0,43.644,32.5c.1-.1.2-.2.307-.3.78-.743,1.957-1.865,1.081-3.165A2.363,2.363,0,0,0,42.327,28.112Zm.674,3.1c-.111.107-.222.212-.33.32a3.868,3.868,0,0,1-2.253,1.114c-.251.055-.527.143-.8.232a4.426,4.426,0,0,1-.972.243c.014-.084.124-.186.505-.457a5.668,5.668,0,0,0,.595-.466,3.544,3.544,0,0,1,.818-.54,4.841,4.841,0,0,0,1.122-.758,2.948,2.948,0,0,0,.66-.984c.176-.372.23-.444.366-.483a1.383,1.383,0,0,1,.384-.058.911.911,0,0,1,.8.432C44.067,30.072,43.868,30.387,43,31.212Z" transform="translate(-11.645 -8.751)" fill="#fff" stroke="#fff" stroke-width="1"/>
    <path id="Path_31" data-name="Path 31" d="M31.679,53.081a1.651,1.651,0,0,0-.486.076c-1,.323-.955,1.33-.93,1.871a3.569,3.569,0,0,1,0,.55,2.852,2.852,0,0,1-.094.43,1.638,1.638,0,0,0,.3,1.757,1.48,1.48,0,0,0,1.045.421,2.566,2.566,0,0,0,1.783-.917,2.419,2.419,0,0,0,.03-3.185A2.161,2.161,0,0,0,31.679,53.081Zm.6,3.263a1.3,1.3,0,0,1-.763.466.123.123,0,0,1-.095-.036,1.639,1.639,0,0,1,.079-.415,4.224,4.224,0,0,0,.13-.628,4.732,4.732,0,0,0,.008-.768,3.027,3.027,0,0,1,0-.5c.115-.021.251.02.612.479A1.045,1.045,0,0,1,32.277,56.344Z" transform="translate(-9.388 -16.588)" fill="#fff" stroke="#fff" stroke-width="1"/>
  </g>
</svg>
