<svg xmlns="http://www.w3.org/2000/svg" width="42.06" height="42" viewBox="0 0 42.06 42">
  <g id="ic-wrench" transform="translate(37.003 -301.997)">
    <g id="Icon-Set" transform="translate(-37.003 301.997)">
      <path id="tools" d="M605.27,328.012a10.055,10.055,0,0,1-11.879,1.7l-16.6,16.573a2.875,2.875,0,0,1-4.07-4.061l16.607-16.573a9.927,9.927,0,0,1,8.685-14.724,7.166,7.166,0,0,0,10.14,10.121,9.909,9.909,0,0,1-2.878,6.964Zm4.589-12.486c-.709.8-1.886,1.809-3.573,3.352a4.311,4.311,0,1,1-6.1-6.091c1.646-1.644,3.416-3.59,3.388-3.6a12.916,12.916,0,0,0-17.685,15.832l-15.2,15.175a5.748,5.748,0,0,0,8.138,8.12l15.2-15.174a12.877,12.877,0,0,0,15.835-17.616Z" transform="translate(-568.997 -307.997)" fill="#fff" fill-rule="evenodd"/>
    </g>
  </g>
</svg>
